<?xml version="1.0" standalone="no"?><!DOCTYPE svg PUBLIC "-//W3C//DTD SVG 1.1//EN" "http://www.w3.org/Graphics/SVG/1.1/DTD/svg11.dtd"><svg t="1614868648061" class="icon" viewBox="0 0 1024 1024" version="1.1" xmlns="http://www.w3.org/2000/svg" p-id="1603" xmlns:xlink="http://www.w3.org/1999/xlink" width="200" height="200"><defs><style type="text/css"></style></defs><path d="M959.8 512c0-17.9-9-41.8-20.9-56.7C858.3 338.9 721 306.1 637.5 300.1c-23.9-26.9-131.3-113.4-131.3-113.4-56.7-44.8-56.7 0-56.7 0V327c-152.2 83.6-152.2 125.3-185 149.2-32.8 23.9-68.6-38.8-125.3-86.5-56.7-50.7-77.6-32.8-74.6 0 3 26.9 26.9 83.6 38.8 107.4 3 6 3 17.9-3 35.8-11.9 26.9-32.8 77.6-35.8 101.5-3 32.8 17.9 50.7 74.6 0 56.7-50.7 92.5-110.4 125.3-86.5 32.8 23.9 32.8 65.7 185 149.2v140.3s0 44.8 56.7 0c0 0 107.4-83.6 131.3-113.4 83.6-6 223.8-38.8 301.4-155.2 11.9-15 20.9-38.9 20.9-56.8z m-155.2 47.7c-26.9 0-47.7-20.9-47.7-47.7 0-26.9 20.9-47.7 47.7-47.7 26.9 0 47.7 20.9 47.7 47.7 0 26.9-20.9 47.7-47.7 47.7z m0 0" fill="#5385D9" p-id="1604"></path></svg>